<?xml version="1.0" standalone="no"?>
<!DOCTYPE svg PUBLIC "-//W3C//DTD SVG 20010904//EN"
 "http://www.w3.org/TR/2001/REC-SVG-20010904/DTD/svg10.dtd">
<svg version="1.0" xmlns="http://www.w3.org/2000/svg"
 width="40.000000pt" height="208.000000pt" viewBox="0 0 40.000000 208.000000"
 preserveAspectRatio="xMidYMid meet">

<g transform="translate(0.000000,208.000000) scale(0.100000,-0.100000)"
fill="#000000" stroke="none">
<path d="M136 2068 c-54 -15 -110 -74 -124 -131 -16 -61 -17 -1734 -2 -1789
11 -36 54 -98 70 -98 4 0 19 18 34 40 15 23 39 46 54 52 61 24 71 32 82 61 7
20 10 308 10 861 0 927 -5 857 71 896 39 21 39 21 22 45 -42 56 -139 85 -217
63z"/>
</g>
</svg>
