<?xml version="1.0" standalone="no"?>
<!DOCTYPE svg PUBLIC "-//W3C//DTD SVG 20010904//EN"
 "http://www.w3.org/TR/2001/REC-SVG-20010904/DTD/svg10.dtd">
<svg version="1.0" xmlns="http://www.w3.org/2000/svg"
 width="306px" height="51px" viewBox="0 0 306.000000 51.000000"
 preserveAspectRatio="xMidYMid meet">

<g transform="translate(0.000000,51.000000) scale(0.100000,-0.100000)"
fill="#000000" stroke="none">
<path d="M930 255 c0 -163 4 -255 10 -255 6 0 10 92 10 255 0 163 -4 255 -10
255 -6 0 -10 -92 -10 -255z"/>
<path d="M112 382 c-56 -53 -102 -100 -102 -104 0 -19 24 -2 116 81 l98 89 98
-90 c58 -54 102 -88 107 -82 8 8 -191 204 -207 204 -4 -1 -53 -44 -110 -98z"/>
<path d="M1460 250 c0 -100 3 -120 15 -120 11 0 15 12 15 50 0 39 3 48 15 44
8 -3 30 -1 50 6 59 19 73 73 30 115 -19 20 -34 25 -75 25 l-50 0 0 -120z m108
78 c33 -33 2 -78 -52 -78 -24 0 -26 3 -26 45 0 44 1 45 33 45 18 0 38 -5 45
-12z"/>
<path d="M1700 250 c0 -100 3 -120 15 -120 11 0 15 12 15 45 0 38 3 45 19 45
12 0 33 -18 52 -45 18 -25 39 -45 46 -45 16 0 12 9 -28 60 l-27 36 24 21 c56
50 13 123 -72 123 l-44 0 0 -120z m98 78 c31 -31 3 -78 -47 -78 -18 0 -21 6
-21 45 0 43 1 45 28 45 15 0 33 -5 40 -12z"/>
<path d="M1983 354 c-33 -16 -63 -66 -63 -104 0 -60 60 -120 120 -120 60 0
120 60 120 120 0 39 -30 88 -65 104 -41 20 -71 20 -112 0z m108 -27 c71 -54
38 -167 -49 -167 -84 0 -123 99 -62 160 23 23 85 27 111 7z"/>
<path d="M2270 270 c0 -81 -3 -102 -15 -105 -51 -16 -50 -16 -35 -25 22 -14
47 -12 64 6 23 22 24 224 1 224 -12 0 -15 -18 -15 -100z"/>
<path d="M2410 250 l0 -120 71 0 c52 0 70 3 67 13 -3 7 -26 13 -56 15 l-52 3
0 40 0 39 45 0 c33 0 45 4 45 15 0 11 -12 15 -45 15 -45 0 -45 0 -45 35 l0 35
50 0 c38 0 50 4 50 15 0 12 -14 15 -65 15 l-65 0 0 -120z"/>
<path d="M2673 350 c-62 -38 -68 -157 -9 -195 33 -22 86 -29 119 -16 45 18 31
30 -27 24 -50 -5 -57 -3 -80 22 -36 38 -36 96 0 132 22 22 32 25 75 21 55 -6
74 7 34 22 -40 15 -77 12 -112 -10z"/>
<path d="M2860 355 c0 -11 11 -15 40 -15 l40 0 0 -105 c0 -87 3 -105 15 -105
12 0 15 18 15 105 l0 105 40 0 c29 0 40 4 40 15 0 12 -17 15 -95 15 -78 0 -95
-3 -95 -15z"/>
<path d="M60 195 l0 -95 65 0 65 0 0 50 c0 49 1 50 30 50 29 0 30 -1 30 -50
l0 -51 68 3 67 3 0 89 c0 63 -4 91 -12 94 -10 3 -13 -18 -13 -82 l0 -86 -40 0
-40 0 0 50 0 50 -55 0 -55 0 0 -50 0 -50 -40 0 -40 0 0 85 c0 69 -3 85 -15 85
-12 0 -15 -17 -15 -95z"/>
</g>
</svg>
